Coordinates
version=1
nRows=39
nColumns=18
inDegrees=yes

Units are S.I. units (second, meters, Newtons, ...)
Angles are in degrees.

endheader
time	pelvis_tilt	pelvis_list	pelvis_rotation	pelvis_tx	pelvis_ty	pelvis_tz	hip_flexion_r	hip_adduction_r	hip_rotation_r	knee_angle_r	ankle_angle_r	hip_flexion_l	hip_adduction_l	hip_rotation_l	knee_angle_l	ankle_angle_l	lumbar_extension
      0.91000000	      2.05414456	      3.12407158	      1.50226839	     -0.79146545	      0.88647941	     -0.31801858	    -13.46389823	     -1.87410560	      0.00000000	      6.66881487	      7.71604323	     24.20327304	      3.76345479	      0.00000000	    -50.04274227	      9.41621495	     -5.00000214
      0.92000000	      1.87571858	      3.00222665	      1.42741710	     -0.78028045	      0.88507673	     -0.31705006	    -14.26376887	     -1.64580798	      0.00000000	      7.07007508	      7.97497650	     25.03091497	      3.65667192	      0.00000000	    -46.81840823	      9.44407502	     -5.00000214
      0.93000000	      1.70773672	      2.88345549	      1.34129497	     -0.76897475	      0.88347008	     -0.31615682	    -15.13680395	     -1.43432224	      0.00000000	      7.57970169	      8.31154506	     25.71195449	      3.52708585	      0.00000000	    -43.32520591	      8.93141135	     -5.00000214
      0.94000000	      1.52376888	      2.69093864	      1.13227360	     -0.75763448	      0.88167516	     -0.31494637	    -15.85665655	     -1.15516616	      0.00000000	      7.84860516	      8.55084342	     26.26887981	      3.24252585	      0.00000000	    -39.63650845	      8.73258658	     -5.00000214
      0.95000000	      1.33845177	      2.52962107	      0.92291570	     -0.74619495	      0.87968393	     -0.31389220	    -16.62525380	     -0.92076410	      0.00000000	      8.20298512	      8.93721572	     26.73298768	      2.98406454	      0.00000000	    -35.80965037	      7.43880395	     -5.00000214
      0.96000000	      1.16969823	      2.31714876	      0.63145537	     -0.73451947	      0.87753188	     -0.31267092	    -17.36504786	     -0.65019046	      0.00000000	      8.44448938	      9.28690905	     27.05982957	      2.60743508	      0.00000000	    -31.95309615	      6.49273381	     -5.00000214
      0.97000000	      1.02283098	      2.05406736	      0.27944252	     -0.72262219	      0.87523408	     -0.31130698	    -18.09908440	     -0.33677603	      0.00000000	      8.60847231	      9.65611391	     27.29178097	      2.13173114	      0.00000000	    -28.19494386	      5.50734616	     -5.00000214
      0.98000000	      0.90284155	      1.79387085	     -0.12527843	     -0.71043349	      0.87279243	     -0.31000121	    -18.87718839	     -0.05329169	      0.00000000	      8.77085833	      9.94961599	     27.43538318	      1.64353410	      0.00000000	    -24.67537323	      5.21574318	     -5.00000214
      0.99000000	      0.77638131	      1.50262280	     -0.56632920	     -0.69810087	      0.87027146	     -0.30861908	    -19.61065452	      0.24813193	      0.00000000	      8.84021973	     10.39922258	     27.55679368	      1.09731648	      0.00000000	    -21.43942311	      4.24463638	     -5.00000214
      1.00000000	      0.70078615	      1.20964689	     -0.98969850	     -0.68544582	      0.86775688	     -0.30733596	    -20.39997728	      0.54114684	      0.00000000	      8.85377768	     10.73158901	     27.59132688	      0.56780975	      0.00000000	    -18.62649028	      4.02156005	     -5.00000214
      1.01000000	      0.61977056	      0.87130956	     -1.43490249	     -0.67264742	      0.86522705	     -0.30597745	    -21.15231758	      0.86985145	      0.00000000	      8.77999910	     10.98907051	     27.65487788	     -0.00996066	      0.00000000	    -16.36734033	      3.98675459	     -5.00000214
      1.02000000	      0.54862996	      0.52815536	     -1.86223033	     -0.65967430	      0.86276135	     -0.30468936	    -21.90117290	      1.19035397	      0.00000000	      8.63749940	     11.23016282	     27.70863076	     -0.56227144	      0.00000000	    -14.65583699	      3.98882005	     -5.00000214
      1.03000000	      0.48555137	      0.18180523	     -2.26872940	     -0.64656994	      0.86044236	     -0.30348516	    -22.62148065	      1.50152662	      0.00000000	      8.39107716	     11.53138872	     27.76002561	     -1.08601811	      0.00000000	    -13.51612637	      3.92597585	     -5.00000214
      1.04000000	      0.41039316	     -0.19516751	     -2.60354307	     -0.63339745	      0.85818270	     -0.30233893	    -23.32320719	      1.84900153	      0.00000000	      8.11989795	     11.59854375	     27.93092755	     -1.58898583	      0.00000000	    -13.13549052	      3.92868758	     -5.00000214
      1.05000000	      0.36518103	     -0.54742781	     -2.97000833	     -0.61997342	      0.85620699	     -0.30130017	    -24.00242055	      2.12397805	      0.00000000	      7.70389438	     11.67328425	     27.96757332	     -2.03852262	      0.00000000	    -13.08914687	      3.85072710	     -5.00000214
      1.06000000	      0.37961423	     -0.84474987	     -3.31937440	     -0.60627057	      0.85450835	     -0.30051319	    -24.72677771	      2.29079688	      0.00000000	      7.20673745	     11.67283054	     27.93793767	     -2.37619945	      0.00000000	    -13.55032216	      3.70202556	     -5.00000214
      1.07000000	      0.26340812	     -1.26087807	     -3.61999397	     -0.59293473	      0.85286238	     -0.29947724	    -25.14471133	      2.61086137	      0.00000000	      6.42061303	     11.68464941	     28.25831986	     -2.83388746	      0.00000000	    -14.74863991	      3.01182027	     -5.00000214
      1.08000000	      0.23438153	     -1.59295279	     -3.94220599	     -0.57923661	      0.85164523	     -0.29870475	    -25.61087036	      2.76813746	      0.00000000	      5.52348007	     11.67600113	     28.37171738	     -3.16711033	      0.00000000	    -16.05336759	      1.83921547	     -5.00000214
      1.09000000	      0.22081730	     -1.93921270	     -4.20173222	     -0.56539165	      0.85071152	     -0.29803923	    -26.00555663	      2.92734866	      0.00000000	      4.45343935	     11.43612723	     28.52584307	     -3.47619396	      0.00000000	    -17.73898775	      1.09919188	     -5.00000214
      1.10000000	      0.21686799	     -2.25818449	     -4.48087855	     -0.55142794	      0.85013578	     -0.29745653	    -26.28529964	      3.00822132	      0.00000000	      3.16870660	     11.11306238	     28.63031185	     -3.75716403	      0.00000000	    -19.51184680	      0.34768289	     -5.00000214
      1.11000000	      0.22833253	     -2.55825767	     -4.74032474	     -0.53742553	      0.85004671	     -0.29698929	    -26.36485930	      3.04422271	      0.00000000	      1.51580027	     10.65802941	     28.62255663	     -4.00476421	      0.00000000	    -21.15804124	     -0.96293146	     -5.00000214
      1.12000000	      0.25449996	     -2.84917229	     -4.96826240	     -0.52333240	      0.85032674	     -0.29663242	    -26.27504927	      3.05790076	      0.00000000	     -0.43679932	     10.01761683	     28.57136186	     -4.23873992	      0.00000000	    -22.86774183	     -1.32279162	     -5.00000214
      1.13000000	      0.28882642	     -3.13160913	     -5.16564105	     -0.50923538	      0.85103889	     -0.29633727	    -25.95504065	      3.06417597	      0.00000000	     -2.76365711	      9.14289380	     28.40078478	     -4.46771932	      0.00000000	    -24.41176346	     -1.46430456	     -5.00000214
      1.14000000	      0.32704069	     -3.40844878	     -5.32758356	     -0.49519843	      0.85217870	     -0.29609440	    -25.37260661	      3.07998567	      0.00000000	     -5.49916836	      8.06072591	     28.10738684	     -4.70121263	      0.00000000	    -25.76010994	     -1.32462030	     -5.00000214
      1.15000000	      0.37408206	     -3.69782136	     -5.47978416	     -0.48124843	      0.85374931	     -0.29581579	    -24.51471489	      3.12515085	      0.00000000	     -8.65260516	      6.70360810	     27.64175927	     -4.97051561	      0.00000000	    -26.85219182	     -0.90113349	     -5.00000214
      1.16000000	      0.41626683	     -3.97775829	     -5.43393817	     -0.46732722	      0.85562686	     -0.29574020	    -23.47070557	      3.27524102	      0.00000000	    -11.99001755	      4.37305831	     27.07160799	     -5.18723646	      0.00000000	    -27.73898071	      0.44970339	     -5.00000214
      1.17000000	      0.44723234	     -4.24716944	     -5.42490874	     -0.45367091	      0.85780332	     -0.29564569	    -22.09003467	      3.42097935	      0.00000000	    -15.79073495	      2.28332151	     26.33899123	     -5.42549876	      0.00000000	    -28.31289807	      1.51200225	     -5.00000214
      1.18000000	      0.45884779	     -4.50327796	     -5.39876119	     -0.44029642	      0.86019504	     -0.29558820	    -20.41027774	      3.59243186	      0.00000000	    -19.91398874	      0.16730841	     25.50465221	     -5.66216788	      0.00000000	    -28.65307786	      2.61633184	     -5.00000214
      1.19000000	      0.46431758	     -4.73255414	     -5.34812354	     -0.42715380	      0.86272306	     -0.29562860	    -18.48529736	      3.76966895	      0.00000000	    -24.26574797	     -1.76504489	     24.55882057	     -5.86758243	      0.00000000	    -28.76066045	      3.67562014	     -5.00000214
      1.20000000	      0.48836344	     -4.88533105	     -5.30510092	     -0.41411634	      0.86540254	     -0.29584542	    -16.40968667	      3.87947843	      0.00000000	    -28.71040841	     -3.07096005	     23.38355910	     -5.97598463	      0.00000000	    -28.44387094	      4.39993424	     -5.00000214
      1.21000000	      0.46541711	     -5.06989470	     -5.19031612	     -0.40147463	      0.86793163	     -0.29600658	    -14.12585866	      4.10305716	      0.00000000	    -33.16808428	     -4.40806825	     22.36822823	     -6.12555487	      0.00000000	    -28.33604940	      5.68166674	     -5.00000214
      1.22000000	      0.45710229	     -5.19411894	     -5.09359736	     -0.38896199	      0.87047977	     -0.29627265	    -11.76160441	      4.27528376	      0.00000000	    -37.55535298	     -4.81409505	     21.21232555	     -6.20142990	      0.00000000	    -27.94369339	      6.48493332	     -5.00000214
      1.23000000	      0.45742293	     -5.27227832	     -4.95634569	     -0.37657900	      0.87295907	     -0.29667958	     -9.38089581	      4.43575372	      0.00000000	    -41.70305848	     -4.66480224	     19.99700019	     -6.20526434	      0.00000000	    -27.40009473	      7.17211999	     -5.00000214
      1.24000000	      0.51298076	     -5.32404366	     -4.81430764	     -0.36408851	      0.87554356	     -0.29708279	     -7.10415104	      4.58733004	      0.00000000	    -45.43074241	     -4.38836837	     18.57814123	     -6.17448001	      0.00000000	    -26.55558209	      7.64314686	     -5.00000214
      1.25000000	      0.48123990	     -5.37556480	     -4.64126586	     -0.35215384	      0.87760787	     -0.29745421	     -4.65693251	      4.80278873	      0.00000000	    -49.03741952	     -2.68217180	     17.48934339	     -6.15448357	      0.00000000	    -26.12123210	      8.46275633	     -5.00000214
      1.26000000	      0.48902847	     -5.42530087	     -4.44568361	     -0.34013776	      0.87974999	     -0.29778035	     -2.34198478	      5.04176051	      0.00000000	    -52.09139947	     -1.34623708	     16.22804023	     -6.13148994	      0.00000000	    -25.38530549	      8.97243776	     -5.00000214
      1.27000000	      0.49893470	     -5.46532608	     -4.22666183	     -0.32820178	      0.88174790	     -0.29808437	     -0.08114194	      5.29685818	      0.00000000	    -54.69679001	      0.07399228	     14.95417297	     -6.10257367	      0.00000000	    -24.59113564	      9.43904397	     -5.00000214
      1.28000000	      0.50097067	     -5.50005528	     -4.00266776	     -0.31639206	      0.88357290	     -0.29835253	      2.13916117	      5.55363459	      0.00000000	    -56.86842110	      1.38175668	     13.69402559	     -6.07757822	      0.00000000	    -23.77539221	      9.84406063	     -5.00000214
      1.29000000	      0.49472723	     -5.53535132	     -3.77429259	     -0.30468811	      0.88520768	     -0.29856621	      4.31269655	      5.82047925	      0.00000000	    -58.60994276	      2.58057761	     12.44488068	     -6.06519944	      0.00000000	    -22.93293461	     10.22018623	     -5.00000214
